<?xml version="1.0" encoding="UTF-8" standalone="no"?>
<!-- Generator: Adobe Illustrator 13.0.0, SVG Export Plug-In  -->

<svg
   enable-background="new -0.161 -0.355 237 211"
   xml:space="preserve"
   version="1.1"
   y="0px"
   x="0px"
   viewBox="-0.161 -0.355 250 250"
   id="svg150"
   sodipodi:docname="abraflexi-monthdigest.svg"
   width="250"
   height="250"
   inkscape:version="1.2.2 (b0a8486541, 2022-12-01)"
   xmlns:inkscape="http://www.inkscape.org/namespaces/inkscape"
   xmlns:sodipodi="http://sodipodi.sourceforge.net/DTD/sodipodi-0.dtd"
   xmlns:xlink="http://www.w3.org/1999/xlink"
   xmlns="http://www.w3.org/2000/svg"
   xmlns:svg="http://www.w3.org/2000/svg"
   xmlns:rdf="http://www.w3.org/1999/02/22-rdf-syntax-ns#"
   xmlns:cc="http://creativecommons.org/ns#"
   xmlns:dc="http://purl.org/dc/elements/1.1/"><defs
     id="defs154"><radialGradient
       id="f"
       cx="51.249001"
       cy="268.41"
       r="731.78998"
       gradientUnits="userSpaceOnUse"><stop
         stop-color="#ddd"
         offset="0"
         id="stop138" /><stop
         stop-color="#7e7e7e"
         offset="1"
         id="stop140" /></radialGradient><radialGradient
       id="a"
       cx="273.41"
       cy="429.82999"
       r="309.13"
       gradientTransform="scale(1.1678,0.8563)"
       gradientUnits="userSpaceOnUse"><stop
         stop-color="#a3a3a3"
         offset="0"
         id="stop143" /><stop
         stop-color="#696969"
         offset="1"
         id="stop145" /></radialGradient><radialGradient
       id="radialGradient425"
       cx="273.41"
       cy="429.82999"
       r="309.13"
       gradientTransform="scale(1.1678,0.8563)"
       gradientUnits="userSpaceOnUse"><stop
         stop-color="#a3a3a3"
         offset="0"
         id="stop421" /><stop
         stop-color="#696969"
         offset="1"
         id="stop423" /></radialGradient><radialGradient
       id="radialGradient431"
       cx="273.41"
       cy="429.82999"
       r="309.13"
       gradientTransform="scale(1.1678,0.8563)"
       gradientUnits="userSpaceOnUse"><stop
         stop-color="#a3a3a3"
         offset="0"
         id="stop427" /><stop
         stop-color="#696969"
         offset="1"
         id="stop429" /></radialGradient><radialGradient
       id="e"
       cx="124.4"
       cy="120.82"
       r="102.27"
       gradientTransform="scale(2.0419,0.48973)"
       gradientUnits="userSpaceOnUse"
       xlink:href="#b" /><linearGradient
       id="b"><stop
         stop-color="#fff"
         offset="0"
         id="stop133-3" /><stop
         stop-color="#fff"
         stop-opacity="0"
         offset="1"
         id="stop135" /></linearGradient><radialGradient
       id="d"
       cx="124.4"
       cy="120.82"
       r="102.27"
       gradientTransform="matrix(2.0178,0.41721,-0.07508,0.64498,56.379,-73.488)"
       gradientUnits="userSpaceOnUse"
       xlink:href="#b" /><radialGradient
       id="c"
       cx="-120.99"
       cy="57.971001"
       r="388.16"
       gradientUnits="userSpaceOnUse"><stop
         offset="0"
         id="stop148" /><stop
         offset=".75"
         id="stop150" /><stop
         stop-opacity="0"
         offset="1"
         id="stop152" /></radialGradient><radialGradient
       inkscape:collect="always"
       xlink:href="#a"
       id="radialGradient475"
       gradientUnits="userSpaceOnUse"
       gradientTransform="scale(1.1678,0.8563)"
       cx="273.41"
       cy="429.82999"
       r="309.13" /><radialGradient
       inkscape:collect="always"
       xlink:href="#a"
       id="radialGradient477"
       gradientUnits="userSpaceOnUse"
       gradientTransform="scale(1.1678,0.8563)"
       cx="273.41"
       cy="429.82999"
       r="309.13" /><radialGradient
       inkscape:collect="always"
       xlink:href="#a"
       id="radialGradient479"
       gradientUnits="userSpaceOnUse"
       gradientTransform="scale(1.1678,0.8563)"
       cx="273.41"
       cy="429.82999"
       r="309.13" /><clipPath
       clipPathUnits="userSpaceOnUse"
       id="clipPath591"><path
         d="M 64.09713,512 H 447.9029 c 22.2879,0 30.3701,-2.3206 38.5182,-6.6783 8.1482,-4.3577 14.5429,-10.7524 18.9006,-18.9006 C 509.6794,478.273 512,470.1908 512,447.9029 V 64.09713 C 512,41.80916 509.6794,33.72701 505.3217,25.57886 500.964,17.43071 494.5693,11.03599 486.4211,6.678318 478.273,2.32064 470.1908,0 447.9029,0 H 64.09713 C 41.80916,0 33.72701,2.32064 25.57886,6.678318 17.43071,11.03599 11.03599,17.43071 6.678318,25.57886 2.32064,33.72701 0,41.80916 0,64.09713 V 447.9029 c 0,22.2879 2.32064,30.3701 6.678318,38.5182 4.357672,8.1482 10.752392,14.5429 18.900542,18.9006 8.14815,4.3577 16.2303,6.6783 38.51827,6.6783 z"
         clip-rule="evenodd"
         id="path589" /></clipPath><clipPath
       clipPathUnits="userSpaceOnUse"
       id="clipPath597"><path
         d="M 0,0 H 512 V 512 H 0 Z"
         id="path595" /></clipPath><clipPath
       clipPathUnits="userSpaceOnUse"
       id="clipPath607"><path
         d="M 310.6214,362 424.7089,162.0939 H 310.6961 l -57.0086,99.4988 z"
         clip-rule="evenodd"
         id="path605" /></clipPath><clipPath
       clipPathUnits="userSpaceOnUse"
       id="clipPath613"><path
         d="M 0,0 H 512 V 512 H 0 Z"
         id="path611" /></clipPath><clipPath
       clipPathUnits="userSpaceOnUse"
       id="clipPath623"><path
         d="M 197.1006,362 83.51535,162.0939 H 197.1006 L 310.6214,362 Z"
         clip-rule="evenodd"
         id="path621" /></clipPath><clipPath
       clipPathUnits="userSpaceOnUse"
       id="clipPath629"><path
         d="M 0,0 H 512 V 512 H 0 Z"
         id="path627" /></clipPath></defs><sodipodi:namedview
     pagecolor="#ffffff"
     bordercolor="#666666"
     borderopacity="1"
     objecttolerance="10"
     gridtolerance="10"
     guidetolerance="10"
     inkscape:pageopacity="0"
     inkscape:pageshadow="2"
     inkscape:window-width="1700"
     inkscape:window-height="1168"
     id="namedview152"
     showgrid="false"
     inkscape:zoom="1.5817744"
     inkscape:cx="121.38267"
     inkscape:cy="181.75791"
     inkscape:window-x="0"
     inkscape:window-y="0"
     inkscape:window-maximized="0"
     inkscape:current-layer="svg150"
     inkscape:showpageshadow="2"
     inkscape:pagecheckerboard="0"
     inkscape:deskcolor="#d1d1d1" /><linearGradient
     id="SVGID_1_"
     y2="205"
     gradientUnits="userSpaceOnUse"
     x2="148.69"
     y1="80.375"
     x1="148.69"><stop
       style="stop-color:#CDAD2D"
       offset="0"
       id="stop131" /><stop
       style="stop-color:#917D2E"
       offset="1"
       id="stop133" /></linearGradient><metadata
     id="metadata148"><rdf:RDF><cc:Work><dc:format>image/svg+xml</dc:format><dc:type
           rdf:resource="http://purl.org/dc/dcmitype/StillImage" /><cc:license
           rdf:resource="http://creativecommons.org/publicdomain/zero/1.0/" /><dc:publisher><cc:Agent
             rdf:about="http://openclipart.org/"><dc:title>Openclipart</dc:title></cc:Agent></dc:publisher><dc:date>2008-06-14T10:49:47</dc:date><dc:description>Email icon.</dc:description><dc:source>https://openclipart.org/detail/17371/email-by-ytknick</dc:source><dc:creator><cc:Agent><dc:title>ytknick</dc:title></cc:Agent></dc:creator><dc:subject><rdf:Bag><rdf:li>email</rdf:li><rdf:li>envelope</rdf:li><rdf:li>icon</rdf:li><rdf:li>letter</rdf:li><rdf:li>mail</rdf:li><rdf:li>postage</rdf:li></rdf:Bag></dc:subject></cc:Work><cc:License
         rdf:about="http://creativecommons.org/publicdomain/zero/1.0/"><cc:permits
           rdf:resource="http://creativecommons.org/ns#Reproduction" /><cc:permits
           rdf:resource="http://creativecommons.org/ns#Distribution" /><cc:permits
           rdf:resource="http://creativecommons.org/ns#DerivativeWorks" /></cc:License></rdf:RDF></metadata><g
     id="g407"
     transform="matrix(0.41560556,0,0,0.41560556,-7.3730173,-8.6559338)"><path
       transform="matrix(0.87529,0,0,0.87529,281.58,288.51)"
       d="m 350.53,36.821 a 308.79,308.79 0 1 1 -617.57,0 308.79,308.79 0 1 1 617.57,0 z"
       fill="url(#f)"
       id="path159"
       style="fill:url(#f)" /><path
       d="m 404.97,347.41 -86.958,144.08 154.01,-45.395 -154.47,53.782 107.14,45.199 -111.77,-16.309 40.498,52.444 -55.072,-44.276 0.48615,41.37 -14.126,-41.077 -13.816,40.339 6.8571,-45.98 -42.167,32.433 33.693,-53.46 -82.172,27.869 76.882,-38.463 -120.51,-3.4365 126.22,-5.6156 -109.29,-127.63 132.36,115.93 8.8283,-166.61 4.342,168.68 99.026,-133.87 z"
       fill="#ffffff"
       opacity="0.47826"
       id="path161" /><path
       d="m 189.16,98.781 c -1.4405,-0.01265 -4.8545,1.3247 -8.5938,2.5625 -9.6224,3.1852 -17.66,14.885 -27.188,17.25 -1.9483,0.4837 -3.4255,0.93906 -4.75,1.375 1.314,-1.0928 2.6939,-2.4294 4,-4.375 6.153,-9.1653 19.015,-16.827 13.594,-15.75 -2.2899,0.45479 -5.0357,1.6229 -7.9062,3.0312 -0.037,0.0272 -0.088,0.0353 -0.125,0.0625 -48.011,35.324 -83.888,86.125 -100.34,145.03 0.03722,1.722 -0.01117,3.3986 -0.375,4.8438 -0.93576,3.717 -0.65662,7.1499 -1.5,10.5 -0.85926,3.4132 -0.75178,6.7744 -2.25,9.75 -1.9118,3.797 -1.824,7.8582 -0.78125,12 1.0736,4.2646 0,7.709 0,12 0,4.3144 -0.0068,7.4315 1.5312,11.25 2.4812,6.16 4.3755,12.923 6.0312,19.5 0.2517,0.99978 0.4983,2.0002 0.75,3 1.1294,4.4864 -1.242,12.544 0.75,16.5 1.3125,2.6068 3.7409,12 8.3125,12 4.9893,0 7.4564,1.3206 9.8125,6 2.6018,5.1675 3.055,11.355 4.5312,17.219 1.108,4.4014 3.0235,11.232 6.0625,14.25 2.0245,2.0104 9.8125,9.1055 9.8125,3 0,-3.6569 0.0938,-9.9077 3.75,-9 2.5957,0.64441 2.9194,7.1882 5.3125,6 1.0068,-0.49989 1.908,-1.2289 3,-1.5 4.7784,-1.1863 7.6685,-0.81017 11.344,-3 3.8916,-2.3188 8.6398,-10.5 14.344,-10.5 4.2489,0 13.594,-1.4265 13.594,4.5 0,2.8583 1.8526,10.945 4.3438,13.531 -2.1865,2.7022 -2.5041,4.898 -0.75,8.4062 1.7247,3.4494 2.875,3.5172 2.875,8.6562 0,1.987 -8.3098,2.5245 -10.062,2.875 -4.429,0.88578 -4.7192,0.90788 -5.75,5.0312 -0.96972,3.8789 2.1408,7.8757 2.875,10.812 0.89412,3.5765 3.4148,5.7528 4.3125,9.3438 0.9699,3.8796 1.9312,2.3378 0.71875,7.1875 -0.77589,3.1036 8.7161,4.5462 10.781,5.0625 3.9485,0.98714 5.3617,2.0514 8.6562,2.875 3.2308,0.8077 9.4938,-6.575 12.219,-7.9375 6.209,-3.1045 5.6412,4.4341 7.2188,-5.0312 0.0121,-0.0725 -0.39609,-1.3396 -0.59375,-1.9688 14.334,3.4514 37.267,4.136 41.156,6.875 4.8822,-4.6479 14.336,-7.0475 19.875,-11.375 2.976,-2.325 12.584,-2.3234 16.562,-4.3125 3.1105,-1.5552 4.5863,-4.8288 5.7812,-7.2188 2.3825,-4.765 0.82993,-5.7778 6.4688,-7.1875 3.2337,-0.80841 -2.6743,-6.2681 -5.0312,-8.625 -3.0875,-3.0875 -3.4055,-4.6836 -4.3438,-9.375 -0.68418,-3.4209 1.8344,-8.6376 2.9062,-10.781 2.2849,-4.5697 6.9908,-8.8731 10.062,-12.969 4.3389,-5.7852 -1.3075,-12.12 -5.0312,-15.844 -1.6145,-1.6145 -7.8439,1.7735 -9.375,2.1562 -3.2106,0.80263 -5.0312,-10.352 -5.0312,-12.219 10e-6,-6.9425 -9.7863,-13.415 -12.969,-18.719 -2.1278,-3.5463 -9.6672,-4.679 -11.5,-4.3125 -4.3046,0.86093 2.8216,17.174 3.5938,18.719 2.3156,4.6312 2.875,10.346 2.875,15.812 1e-5,4.3866 -1.2106,7.0299 -2.1562,10.812 -1.0164,4.0654 -2.4897,5.9167 -6.4688,7.9062 -4.2247,2.1124 -7.2802,2.1562 -12.25,2.1562 -2.1556,0 -5.7806,-3.4684 -7.1875,-4.3125 -0.64117,-2.5647 -18,15.609 -18,27.344 0,10.156 1.1104,11.695 -5.75,15.125 -2.0724,1.0362 -3.343,1.9018 -4.9688,2.8438 -1.6064,-0.59735 -3.0908,-1.1079 -5.125,-2.125 -3.5056,-1.7528 -5.1366,-4.9321 -7.9062,-8.625 -2.6086,-3.4781 -4.7935,-6.2622 -7.1875,-8.6562 -3.0713,-3.0713 -6.6594,0.0811 -7.9375,-5.0312 -0.17341,-0.69366 -0.54543,-1.3176 -0.84375,-1.9688 5.183,2.0521 8.1632,3.0271 14.062,1.5625 3.5108,-0.8716 13.303,-3.1318 15.125,-6.75 2.196,-4.3615 1.0798,-6.1785 -1.5312,-10.5 -2.6826,-4.44 -8.5163,-8.3198 -9.8125,-13.469 -0.90421,-3.5917 -4.5312,-8.0064 -4.5312,-12.75 0,-5.273 10.788,-7.908 9.8125,-12.75 -1.0516,-5.2213 -3.4467,-10.558 -2.25,-16.5 1.4686,-7.2922 7.5387,-10.885 12.062,-16.5 4.5819,-5.6876 4.8453,-11.196 0.78125,-17.25 -5.4098,-8.0582 -4.7445,-1.6436 -10.594,-6 -2.6463,-1.971 -5.4269,-4.9448 -9.0625,-6.75 -2.8075,-1.394 -7.4656,-3.3859 -8.3125,-6.75 -0.83593,-3.3205 -0.55782,-7.1392 -2.25,-10.5 -1.7144,-3.4049 -3.4634,-7.1802 -2.25,-12 1.2336,-4.9001 2.0504,-6.651 6.7812,-9 3.4733,-1.7246 6.1096,-2.289 10.562,-4.5 4.3459,-2.1578 6.3802,-3 11.344,-3 h 12.062 c 6.5007,0 12.519,-3 18.875,-3 h 15.875 c 4.1794,0 6.9108,-0.77962 9.8125,-1.5 3.3051,-0.82053 5.4934,-1.6191 8.3125,-3.7188 2.6783,-1.9948 5.2109,-5.2255 8.2812,-6.75 4.3805,-2.175 7.9341,-3.7676 9.0625,-8.25 0.61446,-2.4408 1.822,-6.72 2.2812,-9 0.1797,-0.8923 2.3137,-9.6972 0.75,-11.25 -3.4513,-3.4273 -7.4591,-3.6988 -12.094,-6 -4.3018,-2.1359 -2.25,-3.743 -2.25,-8.25 0,-4.0862 0.76172,-10.501 3.7812,-13.5 3.2862,-3.2634 5.334,-9.202 10.562,-10.5 5.4588,-1.3552 9.6275,-3.051 15.875,-1.5 3.7586,0.93313 10.623,1.8476 14.344,0 3.1396,-1.5589 9.0625,-4.4056 9.0625,-9.75 0,-3.8883 -0.4172,-7.8031 -3.0312,-9.75 -1.387,-1.033 -9.1816,-4.994 -9.8125,-7.5 -1.2256,-4.8683 -5.0228,-8.9838 -11.344,-12.75 -4.1458,-2.4702 -7.2794,-4.0625 -12.062,-5.25 -4.5996,-1.1419 -10.42,-6.75 -15.125,-6.75 -3.8201,0 -9.0917,-0.92373 -12.812,0 -3.7888,0.94061 -5.4519,2.25 -9.8125,2.25 -4.3042,0 -7.0316,-1.5 -10.594,-1.5 -3.9082,0 -7.2362,0.97082 -9.8125,2.25 -2.9015,1.4407 -5.8644,2.162 -9.0625,3.75 -2.5044,1.2435 -3.7766,3.761 -6.0312,6 -2.281,2.2652 -3.6339,6.073 -8.3125,3.75 -2.1701,-1.0775 -6.7557,-4.1402 -10.562,-2.25 -2.5544,1.2684 -7.5682,4.5213 -9.8125,6.75 -3.681,3.6554 -5.4183,6.2414 -7.5625,10.5 -1.8221,3.6189 -5.0053,7.9246 -6.0312,12 -1.117,4.4369 -2.7432,7.8895 -5.2812,11.25 -2.5958,3.437 -4.1332,6.9249 -8.3125,9 -2.6952,1.3382 -5.2912,4.1224 -9.8125,3 -2.5271,-0.62739 -6.8125,-3.827 -6.8125,-6.75 0,-4.4675 1.2777,-8.0138 2.2812,-12 0.67067,-2.664 4.8656,-17.652 6.7812,-15.75 3.9861,0 8.0726,-3.3009 11.344,-5.25 3.8377,-2.2866 7.3399,-5.4361 12.062,-8.25 7.1049,-4.2333 15.811,-11.197 21.906,-17.25 4.2158,-4.1865 4.753,-5.5498 3.3125,-5.5625 z m 40.719,353.22 c -0.95264,0.90692 -1.7472,1.8889 -2.2812,3 2.6309,-1.2223 3.3884,-2.2203 2.2812,-3 z m -2.2812,3 c -2.5237,1.1725 -6.6942,2.5642 -13.812,4.3438 -5.0573,1.2643 -11.039,1.9633 -5.0312,6.4688 4.7209,3.5407 9.2441,3.5938 15.094,3.5938 3.0616,0 2.875,-8.8083 2.875,-10.781 0,-1.3422 0.35238,-2.5377 0.875,-3.625 z m 104.62,-318.44 c -1.9,0.0981 -3.8103,0.3125 -5.4375,0.3125 -2.6514,0 -7.5244,7.8612 -8.625,10.062 -2.3542,4.7084 -2.9062,9.8671 -2.9062,15.125 10e-6,5.2724 1.0156,8.2812 2.1875,12.969 1.2742,5.097 2.7083,9.7291 5.0312,14.375 3.196,6.392 9.101,12.166 12.938,17.281 3.1072,4.143 4.3014,6.0882 9.375,8.625 4.4307,2.2154 7.7592,2.9062 14.406,2.9062 7.5803,1e-5 19.551,-3.4054 25.906,-7.2188 3.7944,-2.2766 8.07,-3.6756 12.219,-5.75 4.0853,-2.0426 5.4851,-8.064 7.2188,-11.531 1.9539,-3.9078 0.023,-9.3898 2.1562,-13.656 2.3968,-4.7935 0.37683,-8.8726 -2.1562,-12.25 -2.9655,-3.954 -9.6212,-7.7881 -12.969,-8.625 -2.8218,-0.70544 -5.8626,-5.8344 -8.625,-7.9062 -4.1237,-3.0928 -7.3091,-5.1167 -10.812,-7.2188 -3.0445,-1.8267 -4.9119,-1.3182 -7.1875,-3.5938 -2.1011,-2.1011 -1.2173,-2.6403 -5.0312,-3.5938 -1.833,1.2107 -6.8362,2.1562 -11.531,2.1562 -3.7349,0 -7.2663,-1.2775 -10.781,-2.1562 -1.5694,-0.39234 -3.475,-0.41058 -5.375,-0.3125 z m 167.28,38.25 c -2.1043,0.20317 -6.5796,5.0995 -7.1562,7.4062 -0.83415,3.3366 -1.4375,5.939 -1.4375,9.3438 10e-6,3.0663 -0.65362,6.7605 0,9.375 1.1615,4.6461 3.2635,4.6428 0,7.9062 -2.6607,2.6607 -0.16187,3.2415 4.3125,5.0312 3.2612,1.3045 6.0324,1.7511 7.9062,3.625 2.5394,2.5394 1.9386,4.5631 5.75,6.4688 2.8779,1.439 5.1068,5.7943 6.5,7.1875 2.4514,2.4514 9.0983,-2.7523 10.781,-3.5938 3.213,-1.6065 4.7901,-4.0401 7.2188,-6.4688 2.833,-2.833 2.127,-6.6171 1.4375,-9.375 -0.92363,-3.6946 -4.6349,-5.9112 1.4375,-2.875 6.2786,3.1393 4.1764,-2.4284 2.875,-5.0312 -1.8771,-3.7542 -4.4582,-7.8505 -7.2188,-11.531 -2.6203,-3.4937 -3.925,-5.4594 -7.1875,-7.9062 -1.8756,-1.4068 -8.098,-1.8448 -9.3438,-2.1562 -2.6852,-0.67131 -3.7639,-3.7326 -5.7812,-5.75 -2.0958,-2.0958 -5.9284,-1.4375 -9.3438,-1.4375 -0.18442,-0.18442 -0.44939,-0.24777 -0.75,-0.21875 z m -54.188,11.656 c -2.3572,-0.11621 -4.5245,0.49321 -6.25,2.2188 -3.6702,3.6702 -4.6429,7.1072 -8.625,10.094 -2.8923,2.1692 -6.8688,2.9672 -9.375,3.5938 -4.1932,1.0483 -8.6158,1.6195 -12.219,0.71875 -4.535,-1.1338 -6.9017,1.02 -9.375,2.875 -3.4692,2.602 -3.2657,4.7696 -7.1875,5.75 -3.9687,0.99217 -0.54726,4.203 -7.1875,2.875 -0.83143,-0.83144 -7.6928,7.6928 -8.6562,8.6562 -2.7438,2.7438 -5.2956,4.5769 -8.625,7.9062 -3.3566,3.3566 -4.3126,7.2187 -0.71875,10.812 2.6852,2.6852 5.6791,7.6226 6.4688,10.781 1.9088,7.6351 5.9701,13.347 9.375,20.156 3.2342,6.4685 6.4688,5.4302 6.4688,12.969 10e-6,4.8469 1.8336,6.2605 6.4688,7.1875 4.335,0.86699 8.9914,0.71875 13.688,0.71875 4.5335,1e-5 5.0312,1.1547 5.0312,5.75 10e-6,1.9304 -4.8685,6.3372 -5.75,7.2188 -2.4636,2.4636 -2.875,3.4975 -2.875,7.9062 0,3.3395 8.1675,4.8025 11.5,6.4688 4.0772,2.0386 8.9964,-1.0589 11.531,-3.5938 2.7961,-2.7961 3.0157,-8.1408 5.0312,-11.5 2.2577,-3.7628 0.92866,-9.7948 2.875,-13.688 2.1353,-4.2705 3.907,-8.4718 5.0312,-12.969 0.7603,-3.0413 2.5763,-4.9488 5.7812,-5.75 4.4903,-1.1226 5.6189,-0.0983 8.625,2.1562 2.7298,2.0473 6.759,1.4375 10.781,1.4375 4.6013,10e-6 7.7816,-1.3596 10.812,-2.875 3.1545,-1.5773 2.6044,9.0199 2.1562,10.812 -1.0511,4.2045 2.1737,7.2311 3.5938,10.781 1.7053,4.2634 4.3125,3.9204 4.3125,10.094 0,3.9072 -5.75,0.36748 -5.75,5.75 0,2.4548 4.2665,4.1284 5.0312,7.1875 0.88216,3.5287 -5.5296,3.1266 -0.71875,7.9375 3.4765,3.4765 7.2552,2.875 12.25,2.875 6.7872,1e-5 3.0298,-1.2311 7.1875,4.3125 2.2503,3.0004 1.8282,3.5938 7.2188,3.5938 5.7708,0 5.6764,-1.0132 7.1875,5.0312 1.2508,5.0031 -1.0832,6.1457 -3.5938,8.6562 -2.4768,2.4768 -6.6069,2.2632 -8.6562,4.3125 -2.9232,2.9232 5.5249,8.3275 7.2188,9.3438 5.9971,3.5982 10.689,0.81084 15.094,-3.5938 4.5027,-4.5027 7.5656,-4.2625 9.375,-11.5 1.2784,-5.1137 -3.2522,-14.065 -6.4688,-17.281 -2.6014,-2.6014 2.482,-9.959 2.875,-11.531 1.0337,-4.1347 1.4375,-7.7943 1.4375,-12.219 10e-6,-4.1292 4.739,-6.4269 7.9062,-7.2188 5.0373,-1.2593 5.75,-0.66002 5.75,-6.4688 -10e-6,-5.6244 -1.4397,-6.2321 -4.3125,-10.062 -2.817,-3.756 -10.848,-4.6306 -14.406,-9.375 -1.754,-2.3386 5.0864,-6.1213 5.7812,-6.4688 4.1964,-2.0982 -6.7412,-6.9488 -7.2188,-7.1875 -3.4826,-1.7413 -6.1674,0.8694 -9.3438,-0.71875 -3.7447,-1.8723 -8.3487,-9.0674 -10.812,-11.531 -2.5666,-2.5666 -5.2014,-3.6788 -7.9062,-5.0312 -3.6264,-1.8132 -6.5669,-2.1317 -9.3438,-1.4375 -3.0152,0.7538 -1.1371,9.4084 -0.71875,11.5 0.8192,4.0961 -4.574,7.421 -5.7812,12.25 -0.92133,3.6853 -4.1425,4.9888 -7.1875,5.75 -3.3184,0.82961 -4.3125,-9.9871 -4.3125,-12.219 0,-3.6166 4.4249,-6.0061 5.75,-8.6562 1.4832,-2.9664 -0.62308,-8.4337 -1.4375,-10.062 -0.85629,-1.7126 -9.9505,1.4375 -11.5,1.4375 -4.1601,0 2.9912,-10.21 3.5938,-10.812 3.7864,-3.7864 5.1795,-3.7196 4.3125,-7.1875 -0.24585,-0.98343 -13.534,-5.6733 -15.125,-6.4688 -4.8979,-2.449 -5.75,-5.3219 -5.75,-10.094 0,-3.3022 0.71875,-7.208 0.71875,-10.781 -1e-5,-5.2989 0.98245,-7.0869 -3.5938,-9.375 -2.5214,-1.2607 -5.0803,-2.1025 -7.4375,-2.2188 z m -127.03,9.6562 c -2.8408,-0.35278 -5.7374,1.5999 -6.625,3.375 -2.1029,4.2058 0.54035,6.4705 2.1562,8.625 2.3376,3.1168 1.8583,4.6417 -1.4375,7.9375 -3.2941,0 -11.208,9.3438 -18.719,9.3438 -4.7368,0 -10.267,1.54 -12.938,2.875 -3.6056,1.8028 -4.3125,4.0693 -4.3125,7.9062 -10e-6,1.4742 4.321,4.3778 5.0312,7.2188 0.90064,3.6026 -8.691,2.5069 -10.094,2.1562 -3.5668,-0.8917 -4.1713,-1.9413 -7.9062,-2.875 -3.6067,-0.90168 -5.0312,7.5311 -5.0312,10.062 1e-5,4.3435 3.5938,5.1439 3.5938,10.094 1e-5,1.3577 -8.636,4.6774 -9.3438,5.0312 -4.3732,2.1866 -7.9778,5.1118 -10.094,9.3438 -2.1327,4.2654 2.4951,7.7475 4.3125,8.6562 5.3985,2.6993 7.1512,0.65124 11.531,5.0312 5.0482,5.0482 6.0213,10.589 12.219,13.688 4.5809,2.2905 8.4055,2.1562 13.688,2.1562 6.7786,0 10.148,-6.0937 13.688,-10.812 3.9573,-5.2764 0.33131,-9.8812 -4.3438,-12.219 -7.1212,-3.5606 -18.923,-6.6632 -25.906,-12.25 -3.51,-2.808 -6.252,-4.5292 -2.1562,-8.625 4.7057,-4.7057 6.1144,-7.026 10.812,-9.375 3.2257,-1.6129 6.3032,-2.1562 10.781,-2.1562 6.7092,0 8.1965,-2.616 13.688,2.875 3.905,3.905 5.1001,4.3782 10.781,7.2188 5.6659,2.833 6.7086,-0.51018 10.812,3.5938 3.0501,3.0501 6.9207,4.0198 11.5,2.875 4.9804,-1.2451 8.2821,-9.5949 10.812,-12.969 3.1292,-4.1722 4.8069,-8.8035 3.5938,-13.656 -1.1839,-4.7356 -4.3125,-3.5524 -4.3125,-9.375 0,-5.6012 1.7482,-5.75 -7.2188,-5.75 -6.7111,-1e-5 -8.625,-2.1794 -8.625,-7.9062 0,-2.8636 2.1562,-6.5985 2.1562,-10.812 -2e-5,-4.2602 -6.4863,-7.6813 -9.3438,-10.062 -0.86482,-0.72068 -1.8031,-1.1012 -2.75,-1.2188 z m 232.41,38.594 c -1.3182,-0.14216 -2.4752,1.3018 -3.6562,2.1875 -4.4219,1.1055 0.99197,13.961 3.5938,16.562 7.4101,7.4101 1.8601,-1.0997 0,-5.75 -1.689,-4.2226 4.4969,-4.0297 6.5,-5.0312 2.429,-1.2145 -4.2122,-6.3685 -5.0625,-7.2188 -0.48043,-0.48042 -0.93558,-0.70261 -1.375,-0.75 z m -349.56,68.906 c -1.3888,-0.18896 -2.514,1.1496 -3.1875,3.8438 -0.95107,3.8043 2.1562,7.5118 2.1562,11.5 1e-5,3.9818 -4.1383,7.9594 -5.0312,11.531 -1.1947,4.7787 -0.90565,4.4994 -3.5938,7.1875 -0.84828,0.84828 -2.3941,0 -3.5938,0 -3.1472,1.8883 -1.2661,7.2519 -2.1562,10.812 -0.9099,3.6396 -2.1875,4.6132 -2.1875,8.625 0,2.9717 -1.4375,5.807 -1.4375,9.3438 0,4.6968 -0.17111,5.439 1.4375,8.6562 1.7895,3.5789 3.5464,4.2535 6.5,6.4688 3.0198,2.2648 7.8057,1.8471 11.5,0 4.1509,-2.0754 5.5445,-2.8771 9.375,-5.75 3.0508,-2.2881 6.283,-3.5473 9.3438,-4.3125 2.7361,-0.68402 7.108,-1.5895 9.375,-2.1562 2.3276,-0.58191 -1.6966,5.491 0,7.1875 2.9423,2.9423 7.4133,-3.1008 7.9062,-3.5938 1.6409,-1.6408 -5.2184,-9.0305 -5.75,-10.094 -1.3917,-2.7834 -7.1874,-3.5781 -10.094,-5.0312 -4.8822,-2.4411 -6.2056,-4.0494 -10.062,-7.9062 -5.3576,-5.3576 -2.3098,-5.6321 -5.7812,-6.5 -3.9844,-0.9961 -3.1072,1.7142 -5.0312,-7.9062 -1.2404,-6.2019 2.995,-9.1361 4.3125,-14.406 1.2155,-4.8619 3.1383,-7.3796 0.71875,-12.219 -1.689,-3.3779 -3.33,-5.0923 -4.7188,-5.2812 z m 243.69,23.281 c -2.146,0.5365 0.12664,4.9046 -1.4375,6.4688 l -3.5938,3.5938 c -7.853,7.853 -5.4809,10.632 -1.4375,18.719 1.8505,3.701 3.317,8.2368 4.3125,12.219 1.239,4.956 7.0434,5.0625 11.531,5.0625 5.953,10e-6 5.9804,2.4898 11.5,3.5938 6.3941,1.2788 7.2188,-7.6008 7.2188,-12.25 1e-5,-5.5185 -0.15646,-9.7496 2.1562,-14.375 4.2205,-8.441 -0.55746,-14.245 -5.75,-19.438 -3.7448,-3.7448 -9.4327,-0.16525 -12.969,0.71875 -5.7222,1.4306 -7.5238,0.69682 -11.531,-4.3125 z m -379.31,36.688 c -1.5049,-0.75245 -1.4375,9.4801 -1.4375,12.25 0,3.6177 0.64885,6.1891 1.4375,9.3438 1.1949,4.7796 2.3852,4.8022 5.0312,2.1562 1.0756,-1.0756 0,-9.071 0,-10.781 0,-4.3774 -1.7378,-7.1005 -2.875,-9.375 -0.62566,-1.2513 -1.4365,-2.3941 -2.1562,-3.5938 z"
       fill="url(#a)"
       fill-rule="evenodd"
       opacity="0.45894"
       id="path163"
       style="fill:url(#radialGradient475)" /><path
       d="m 498.93,346.49 -172.03,122.89 203.87,19.466 -208.44,-10.195 104.92,100.33 -124.28,-69.798 22.667,77.891 -43.82,-75.356 -19.307,46.986 3.0432,-52.923 -35.717,39.247 30.203,-48.822 -65.431,17.282 65.519,-44.945 -110.53,-6.2612 109.36,-8.1454 -140.8,-59.268 151.9,51.66 -67.848,-194.49 100.75,191.87 90.504,-184.27 -75.931,192.66 181.39,-105.81 z"
       fill="#ffffff"
       opacity="0.47826"
       id="path165" /><path
       d="m 187.88,92.906 c -5.2081,0.57993 -10.389,3.2114 -14.562,5.5312 -0.66432,-1.8978 -1.7897,-3.0903 -3.1562,-3.8125 -69.998,45.92 -117.46,123.42 -121.97,212.22 0.0035,0.02 -0.0036,0.0425 0,0.0625 0.85556,4.7909 2.172,9.5027 4.1875,14 4.8639,11.619 0.32471,25.238 7.4375,36.062 3.0296,4.1725 -3.2087,8.6348 -1.875,13.812 0.90152,8.2788 -0.45034,19.992 8.3125,24.406 9.2351,0.8029 12.406,-10.644 10.344,-17.938 -1.4061,-7.7892 -0.47288,-5.6812 1.0312,0.8125 2.203,12.117 7.0088,27.589 21.031,29.875 5.68,1.8616 6.0067,-6.5446 9.5,-5.9688 5.4344,1.7597 9.7352,-1.8134 14.844,-2.875 7.9648,-2.629 12.535,-13.373 21.75,-11.156 3.5877,2.6968 2.4247,8.6969 4.1875,12.75 -1.948,4.3927 0.8065,8.4522 2.2188,12.469 -7.8022,-0.0669 -16.921,6.2791 -14.344,14.969 0.99915,9.2302 8.4764,16.75 8.125,26.188 4.1383,9.1496 15.702,7.6191 23.312,11.625 8.4414,1.7057 12.772,-9.3011 21.062,-7.875 4.1652,-3.8523 6.2182,-7.7108 12.812,-4.6875 7.6247,0.64473 6.6891,1.1004 0.46875,4.3438 -5.1096,2.5802 -0.76121,10.405 2.75,13.062 6.6052,3.6861 15.987,7.0449 23,2.7812 6.4455,-5.2689 1.5314,-16.342 10.219,-19.875 8.6232,-5.2608 17.918,-9.6006 27.969,-11.219 9.1178,-1.5149 9.263,-13.188 16.719,-16.625 5.4027,-6.8379 -2.4798,-13.38 -6.4375,-18.344 -4.9195,-10.086 6.4717,-17.599 10.969,-25.375 5.5685,-9.8875 -3.9083,-25.633 -15.344,-23.594 -5.4002,2.2248 -2.4422,-6.5882 -5.1875,-9.6562 -4.1834,-8.6672 -11.223,-16.245 -19.125,-21.562 -5.9058,-4.2142 -18.001,-2.0768 -16.906,6.8438 0.2142,9.3294 6.4841,18.738 7.1562,27.156 -6.5083,-8.2654 -18.673,-8.6617 -24.125,-18 -2.4882,-4.267 -10.015,-5.561 -6.9375,-11.688 4.5888,-9.5281 8.7136,-22.508 0.28125,-31.25 -1.9542,-4.1317 -9.1121,0.31593 -8.6562,-5.125 -2.604,-6.349 -9.2817,-8.7546 -14.906,-11.219 -5.2303,-4.6588 -14.395,-6.6806 -14.5,-14.969 -2.1898,-5.8692 -6.7564,-14.769 1,-18.531 14.064,-9.1328 31.286,-5.4604 46.844,-9.1562 15.021,-1.1636 32.314,1.2208 44.219,-10.219 7.6602,-5.2146 16.377,-11.227 17.125,-21.469 1.8729,-7.2745 4.4162,-17.286 -3.625,-21.938 -2.8979,-3.4188 -11.538,-2.3113 -9.3125,-8.75 0.85788,-10.867 10.721,-21.134 22.094,-18.562 7.2664,1.2957 15.288,1.8936 21.969,-1.7812 -0.86933,10.851 2.6316,22.152 6.625,31.594 -9.6085,0.31824 -15.558,13.183 -8.2188,20.094 -5.3785,5.9238 -13.896,9.4092 -22.094,10.156 -8.89,0.59004 -18.567,9.0157 -14.969,18.438 -5.6207,-2.8769 -14.457,-3.15 -16.469,4.2812 -2.6859,5.1972 -2.7237,11.822 0.0312,17 -8.7605,4.1125 -20.124,10.864 -18.188,22.188 2.5306,11.136 18.121,8.4244 21.719,18.5 9.1085,14.94 34.79,16.575 43.281,0.25 6.3162,-6.8738 4.2828,-18.949 -4.7812,-22.344 -8.2819,-4.7412 -18.419,-6.3045 -25.625,-12.875 6.7463,-9.0521 22.08,-12.968 30.312,-3.75 6.3645,6.3157 16.248,5.6632 23.219,11.125 10.607,4.2596 20.555,-4.7567 24.5,-13.969 5.3019,-7.3401 8.1342,-18.673 1.375,-26.031 0.27576,-3.3379 -1.6264,-9.0944 -2.1875,-10.406 6.2713,1.6638 12.896,1.3342 19.219,0.28125 -6.5294,4.8288 -11.809,14.559 -5.5625,21.75 7.3944,9.7063 9.3349,22.142 16.625,31.969 5.3391,6.2429 3.4014,17.261 12.125,20.594 4.9564,2.9691 11.039,1.8111 16.531,2.2812 -6.594,4.8325 -10.818,16.076 -3.25,21.938 8.4904,5.7148 22.336,9.205 29.312,-0.65625 8.8606,-11.518 7.0642,-27.426 14.719,-39.656 2.8622,-5.1296 8.3912,3.2135 13,1.8125 3.9237,2.2667 13.655,-4.4438 12.969,1.5 0.28838,6.7012 2.7929,13.376 7.2188,18.281 -5.2274,3.3358 -6.7801,10.691 -1.9062,15.125 1.653,3.4326 -2.3012,8.3453 1.5625,11.719 4.6277,5.9274 12.591,5.2388 19.031,6.5938 3.3902,4.0138 7.2393,8.1753 13.094,7.25 3.3788,3.3673 -6.0594,4.9469 -8.4062,7.4375 -7.4295,6.1678 1.012,16.058 7.625,18.906 7.8186,4.5015 17.654,1.799 23.281,-4.9062 8.5983,-5.7722 13.729,-17.592 8,-27.125 -1.9632,-4.1689 -6.122,-8.368 -2.5625,-12.906 2.3986,-5.1503 1.3648,-12.18 4.3438,-16.5 5.8175,-1.9272 13.466,-5.433 11.938,-12.938 1.2046,-10.008 -8.8783,-17.21 -15.5,-21.25 5.0903,-3.6926 3.9917,-11.17 -1.5625,-13.781 -5.475,-6.2559 -15.848,-2.2615 -20.312,-9.6875 -6.8877,-7.3046 -16.652,-16.542 -27.5,-13.062 -3.7252,0.46061 -5.5868,8.5252 -7.2188,1.5 -1.3447,-4.0531 -10.943,-2.6395 -4.7812,-6.5312 5.2419,-5.5144 0.89498,-14.231 -6.1562,-15.281 -5.0233,-2.3454 -13.756,-3.005 -12.531,-10.688 0.92454,-8.3012 2.2794,-19.673 -6.8438,-24.062 -8.8038,-4.7656 -20.725,-1.4472 -24.938,7.8438 -4.6896,6.0581 -13.117,6.783 -20.188,6.4375 2.0246,-7.3233 2.575,-15.056 3.75,-22.531 -0.74314,-11.44 -11.934,-16.958 -20.469,-22.219 -7.0719,-5.9417 -14.27,-11.955 -22.781,-15.875 -4.4494,-4.6278 -10.886,-6.6515 -16.906,-3.9688 -10.687,1.4428 -23.1,-6.1062 -32.531,1.3438 -3.4992,6.126 -5.1304,-4.7246 -9.75,-5.4062 -6.9518,-3.8392 -8.31,-12.534 -15.344,-16.469 -9.6536,-6.1362 -20.56,-10.173 -31.031,-14.625 -11.359,-2.7846 -22.788,2.8073 -34.156,0.625 -12.388,-0.18052 -24.891,5.4854 -32.594,15.25 -3.238,-2.1582 -14.045,-1.008 -7.6562,-5.1875 3.7202,-3.3124 8.993,-10.3 2.9375,-13.875 -1.4961,-1.2673 -3.5015,-1.2568 -5.3438,-1.25 z m -23.625,35.656 -1.6875,2.6875 c -6.6079,10.317 -8.4939,24.594 -19.5,31.406 -5.8304,3.1891 -5.6705,-4.6923 -4.2188,-8.2188 2.7912,-5.8221 1.9615,-14.607 9.8438,-16.25 6.0518,-1.6781 10.316,-6.4588 15.562,-9.625 z m 340,40.406 c -2.2062,-0.0972 -4.4335,0.0758 -6.5,0.25 -12.895,5.0074 -14.117,21.298 -12.344,33.031 1.46,4.5973 -4.4005,10.359 1.2188,13.75 5.2574,4.0272 13.326,4.6542 16.281,11.219 5.967,3.3196 9.9025,13.683 18.25,9.5625 9.367,-3.9373 19.676,-10.784 20.312,-21.875 4.5227,-1.9776 7.1261,-7.1803 3.5312,-11.281 -4.1522,-10.183 -10.685,-20.991 -20.906,-25.656 -6,-0.26922 -9.2396,-4.62 -13.5,-7.6562 -1.9663,-0.87076 -4.1376,-1.2465 -6.3438,-1.3438 z m -168.88,46.531 c 0.37167,0.0295 0.80177,0.47395 1.25,1.5938 5.3818,2.9573 5.1834,4.2542 -1.3438,2.5938 -1.5518,-0.60153 -1.0213,-4.2759 0.0937,-4.1875 z m 215.88,13.438 c -0.93951,-0.1117 -1.9214,-0.0347 -2.9375,0.25 -10.395,2.8952 -10.501,16.418 -4.9688,23.781 2.5552,5.2057 9.8574,13.373 15.25,7.2812 3.0763,-3.2133 0.70163,-8.1396 -0.4375,-11.375 6.6221,-2.8229 6.6904,-12.374 0.375,-15.594 -2.0172,-2.1064 -4.4627,-4.0086 -7.2812,-4.3438 z m -64.656,25.781 c 0.14176,-0.14233 0.18197,-0.0668 0.0937,0.40625 -1.3754,5.9414 -7.5219,11.2 -2.3125,2.7188 0.56763,-0.21757 1.7935,-2.698 2.2188,-3.125 z m -40,65.25 c -0.21324,-0.0641 -0.46595,-0.0253 -0.78125,0.15625 -8.4266,0.28898 -6.3723,11.64 -12.469,15.031 -7.1606,6.7804 -4.0118,17.768 0.46875,25.094 2.2122,7.9167 5.7523,18.497 15.719,18.438 7.9663,-0.45305 16.132,7.6324 23.375,1.5938 9.3974,-7.2575 3.6585,-20.239 8.3438,-29.688 4.4876,-11.372 -3.8797,-25.1 -15.406,-27.625 -6.0451,-0.78524 -13.726,6.2668 -17.75,-1.4062 -0.57362,-0.35143 -0.86029,-1.4014 -1.5,-1.5938 z m -253.81,1.5938 c -2.0494,2.787 -4.0794,12.007 -6.625,9.6875 0.48312,-3.8745 4.4481,-7.8732 6.625,-9.6875 z m 28.562,55.719 c 0.33538,-0.18319 1.1498,-0.0796 2.6875,0.625 l 0.375,0.9375 0.21875,0.5 c -0.99858,1.7453 -4.2874,-1.5129 -3.2812,-2.0625 z m -20.5,10.875 c 1.4279,-0.0895 1.5338,0.49321 -1.625,3.5625 l -0.0937,0.125 c -4.5693,7.6914 -7.0424,16.533 -6.75,25.5 -3.0652,6.0125 -9.7563,1.7654 -11.844,-2.6875 -4.7918,-4.6654 -5.7347,-7.423 1.4375,-8.2812 7.7557,-1.7912 15.316,-9.2685 12.562,-17.719 2.1321,0.35672 4.8846,-0.41053 6.3125,-0.5 z"
       fill="url(#a)"
       fill-rule="evenodd"
       opacity="0.47826"
       id="path167"
       style="fill:url(#radialGradient477)" /><path
       d="m 189.69,82.906 c -84.439,45.73 -141.84,135.13 -141.84,237.84 0,28.66 4.5039,56.261 12.781,82.188 4.799,2.3913 10.694,2.7073 15.344,-0.0312 6.5904,11.79 23.422,19.824 35.156,10.312 8.5707,-3.2436 18.278,-4.2319 25.125,-11 4.5378,-4.3668 2.2852,7.3125 -2.3438,7.2812 -9.9606,8.7666 -8.4042,23.912 -2.25,34.375 3.482,8.5417 3.9461,19.559 13.25,24.188 8.2624,4.6124 18.011,7.1347 27.344,7.6875 7.2455,-0.70169 12.424,-7.1424 19.562,-8.0625 4.1069,13.154 20.14,18.551 32.75,17.312 9.469,-0.83644 15.957,-9.029 17.406,-17.969 3.2311,-10.155 15.696,-10.522 24.094,-14.094 8.7708,-2.1107 15.611,-8.1921 20.156,-15.75 5.355,-5.8195 11.262,-13.316 7.875,-21.688 -1.3267,-6.2752 -11.496,-11.878 -5.0625,-18.406 7.8477,-8.5998 13.752,-21.297 7.8125,-32.562 -3.4244,-7.8281 -10.628,-14.552 -19.375,-15.469 -5.245,-15.925 -18.777,-30.133 -35.344,-33.75 -11.404,-1.182 -22.967,10.133 -20.656,21.656 -6.2063,-4.0089 -0.3549,-9.964 -0.0937,-15.312 2.9024,-12.491 -1.4712,-27.046 -13.5,-33.062 -6.5037,-5.2652 -12.288,-11.642 -20.469,-14.406 -5.4456,-2.8923 -11.389,-9.5655 -9.9688,-15.844 17.397,-6.4872 36.575,-5.5473 54.844,-7.6875 3.846,1.267 12.434,-4.3774 10.844,2.7188 -0.80412,4.1106 -6.9537,4.9529 -9.0312,8.9062 -8.9999,9.0402 -10.478,26.013 0.71875,33.969 7.0071,4.8499 15.396,8.1996 19.969,15.781 16.285,17.145 50.539,11.9 58.312,-11.375 3.5247,-7.3864 1.8771,-16.475 -2.8438,-22.938 10.49,5.0549 24.173,9.9223 34.375,1.5312 6.8213,-4.0954 11.727,-10.842 14.906,-18.031 7.2523,13.324 12.18,27.922 20.625,40.531 2.1094,4.3231 10.311,4.4701 10.156,8.3125 -1.8308,13.453 10.335,24.854 23.156,26 5.0935,1.0379 8.978,-0.18981 6.25,6.2188 -1.1117,12.532 5.5879,24.152 10.438,35.281 7.8646,11.001 22.637,12.566 34.938,14.344 13.713,2.082 23.081,-11.966 23.688,-24.219 0.46936,-7.364 2.0913,-14.799 3.1562,-21.938 5.8543,-1.4529 0.71732,4.9356 0.53125,8.5312 -1.7974,19.206 21.271,33.01 38.156,25.656 16.217,-5.9066 29.488,-24.526 23.594,-42.031 -2.2341,-5.1275 -4.5884,-10.199 -2.2812,-15.812 0.94364,-8.9877 12.935,-10.14 14.281,-19.188 3.9643,-11.349 -2.078,-23.48 -10.656,-30.969 9.1435,-0.53759 16.307,-10.531 13.906,-19.375 7.8067,-10.736 1.3194,-26.59 -10.438,-31.25 -3.2039,-1.9346 -10.278,-0.36329 -4.8125,-5.375 4.1791,-7.2178 1.2062,-15.145 -2.5625,-21.719 -5.9226,-12.927 -16.95,-23.23 -30.156,-28.375 -12.007,-10.358 -33.619,-8.8406 -41.156,6.1875 -6.9888,10.374 -4.457,24.198 -5.9062,35.312 -5.2014,-3.4087 -0.3513,-10.518 -2.6562,-15.562 -2.2989,-14.579 -18.138,-24.577 -32.281,-20.156 -6.6058,1.8732 -12.205,6.2306 -17,11 3.6172,-13.655 -4.9734,-27.406 -16.781,-33.875 -14.176,-9.7635 -27.456,-22.032 -44.281,-26.938 -9.6032,0.66371 -19.161,0.20169 -28.656,-0.875 -4.468,-0.96022 -9.4142,1.4616 -13.156,1.375 -9.6652,-8.4473 -16.889,-20.313 -29.625,-24.656 -13.742,-7.276 -29.143,-13.127 -44.938,-10.219 -13.415,1.3056 -27.879,-0.14078 -39.812,7.3438 -1.9344,-6.7491 -8.621,-11.436 -15.531,-11.875 h -0.0312 z m 95.062,87.5 c 1.1963,-0.18268 2.4213,-0.13752 3.625,0.1875 3.8378,1.054 10.026,-0.4143 12.562,1.5 -0.71782,4.5934 5.099,10.754 1.625,13.969 -5.6983,5.1087 -8.7778,13.401 -6.8125,20.906 -6.9589,4.7768 -6.8995,1.7121 -5.4062,-4.625 1.0957,-10.285 -4.209,-21.363 -13.875,-25.438 1.3976,-3.3425 4.6923,-5.952 8.2812,-6.5 z M 529.222,243 c 0.34244,-0.10822 0.64908,0.30847 0.75,1.7812 -3.1058,3.6899 -1.7773,-1.4566 -0.75,-1.7812 z m -74.562,49.188 0.96875,0.28125 0.53125,0.15625 c 3.6204,2.0574 9.5773,-1.8775 10.219,3.8125 3.8216,5.1446 -0.15406,10.427 0.4375,15.969 -2.294,1.7832 -8.5847,1.7557 -12.25,1.3438 -4.4686,-2.46 -7.1298,-3.3603 -3.875,-9.1875 1.2754,-4.0973 1.5244,-8.7492 3.9688,-12.375 z"
       fill="url(#a)"
       fill-rule="evenodd"
       opacity="0.20773"
       id="path169"
       style="fill:url(#radialGradient479)" /><path
       d="m 318.12,50.469 c -67.484,0 -129.15,24.807 -176.53,65.75 10.088,-3.9864 55.999,-24.156 59.938,-26.125 35.243,-17.621 95.137,-24.091 133.88,-14.406 l 11.531,2.875 c 18.572,4.643 39.578,2.875 59.031,2.875 11.842,0 11.294,-6.8793 6.8438,-13.875 -29.473,-11.037 -61.377,-17.094 -94.688,-17.094 z"
       fill="url(#e)"
       fill-rule="evenodd"
       opacity="0.65217"
       id="path171"
       style="fill:url(#e)" /><path
       d="m 363.01,57.98 c -66.686,-13.789 -131.43,6.2817 -184.52,50.523 10.58,-3.1888 59.041,-20.371 63.234,-22.16 37.528,-16.006 97.706,-12.289 134.5,8.3807 3.6463,2.0483 7.3078,4.0942 10.954,6.1425 17.64,9.9094 38.67,11.873 57.893,15.848 11.702,2.4195 12.215,-6.7525 8.89,-16.875 -27.433,-20.558 -58.031,-35.053 -90.948,-41.859 z"
       fill="url(#d)"
       fill-rule="evenodd"
       opacity="0.24155"
       id="path173"
       style="fill:url(#d)" /><path
       transform="matrix(0.6903,0.21987,-0.30349,0.95283,122.63,-19.128)"
       d="m 151.86,259.18 -11.049,-13.27 0.67944,18.45 -2.8108,-18.97 -9.3566,16.801 8.1443,-18.049 -16.317,9.1571 15.786,-9.605 -18.022,-0.84544 17.722,-0.63967 -14.418,-10.712 15.035,8.9571 -6.015,-16.16 7.0336,16.703 4.0944,-18.316 -0.84696,18.428 12.614,-13.314 -13.074,13.05 18.493,-2.4245 -18.114,4.3848 17.309,6.3304 -17.671,-4.4104 10.783,14.456 z"
       fill="#ffffff"
       opacity="0.45894"
       id="path175" /><path
       transform="matrix(-0.71988,-0.081475,0.11246,-0.99365,599.25,553.77)"
       d="m 151.86,259.18 -11.049,-13.27 0.67944,18.45 -2.8108,-18.97 -9.3566,16.801 8.1443,-18.049 -16.317,9.1571 15.786,-9.605 -18.022,-0.84544 17.722,-0.63967 -14.418,-10.712 15.035,8.9571 -6.015,-16.16 7.0336,16.703 4.0944,-18.316 -0.84696,18.428 12.614,-13.314 -13.074,13.05 18.493,-2.4245 -18.114,4.3848 17.309,6.3304 -17.671,-4.4104 10.783,14.456 z"
       fill="#ffffff"
       opacity="0.45894"
       id="path177" /><path
       transform="matrix(-0.88316,-0.51296,0.7214,-1.1591,442.52,768.26)"
       d="m 151.86,259.18 -11.049,-13.27 0.67944,18.45 -2.8108,-18.97 -9.3566,16.801 8.1443,-18.049 -16.317,9.1571 15.786,-9.605 -18.022,-0.84544 17.722,-0.63967 -14.418,-10.712 15.035,8.9571 -6.015,-16.16 7.0336,16.703 4.0944,-18.316 -0.84696,18.428 12.614,-13.314 -13.074,13.05 18.493,-2.4245 -18.114,4.3848 17.309,6.3304 -17.671,-4.4104 10.783,14.456 z"
       fill="#ffffff"
       opacity="0.45894"
       id="path179" /><path
       transform="matrix(0.32836,0.36763,-0.53307,0.81324,260.05,-94.271)"
       d="m 151.86,259.18 -11.049,-13.27 0.67944,18.45 -2.8108,-18.97 -9.3566,16.801 8.1443,-18.049 -16.317,9.1571 15.786,-9.605 -18.022,-0.84544 17.722,-0.63967 -14.418,-10.712 15.035,8.9571 -6.015,-16.16 7.0336,16.703 4.0944,-18.316 -0.84696,18.428 12.614,-13.314 -13.074,13.05 18.493,-2.4245 -18.114,4.3848 17.309,6.3304 -17.671,-4.4104 10.783,14.456 z"
       fill="#ffffff"
       opacity="0.45894"
       id="path181" /><path
       transform="matrix(0.14498,0.27452,-0.56806,0.30001,243.8,13.125)"
       d="m 266.32,180.95 -31.251,-35.992 -5.5848,45.601 4.2176,-45.567 -38.945,30.212 31.988,-33.578 -43.213,-1.5415 45.644,-6.5421 -37.731,-28.777 39.416,27.108 -7.8354,-46.641 14.799,44.356 20.565,-39.747 -18.73,42.892 45.625,-19.116 -41.68,23.177 43.264,16.532 -44.986,-9.4025 24.439,37.026 z"
       opacity="0.16425"
       id="path183" /><path
       transform="matrix(-0.075915,0.30103,-0.62291,-0.15709,509.59,58.544)"
       d="m 266.32,180.95 -31.251,-35.992 -5.5848,45.601 4.2176,-45.567 -38.945,30.212 31.988,-33.578 -43.213,-1.5415 45.644,-6.5421 -37.731,-28.777 39.416,27.108 -7.8354,-46.641 14.799,44.356 20.565,-39.747 -18.73,42.892 45.625,-19.116 -41.68,23.177 43.264,16.532 -44.986,-9.4025 24.439,37.026 z"
       opacity="0.16425"
       id="path185" /><path
       transform="matrix(0.46757,0.14271,-0.33665,0.58155,263.74,169.48)"
       d="m 266.32,180.95 -31.251,-35.992 -5.5848,45.601 4.2176,-45.567 -38.945,30.212 31.988,-33.578 -43.213,-1.5415 45.644,-6.5421 -37.731,-28.777 39.416,27.108 -7.8354,-46.641 14.799,44.356 20.565,-39.747 -18.73,42.892 45.625,-19.116 -41.68,23.177 43.264,16.532 -44.986,-9.4025 24.439,37.026 z"
       opacity="0.16425"
       id="path187" /><path
       transform="matrix(0.1692,-0.11385,0.083824,0.74294,67.266,327.4)"
       d="m 266.32,180.95 -31.251,-35.992 -5.5848,45.601 4.2176,-45.567 -38.945,30.212 31.988,-33.578 -43.213,-1.5415 45.644,-6.5421 -37.731,-28.777 39.416,27.108 -7.8354,-46.641 14.799,44.356 20.565,-39.747 -18.73,42.892 45.625,-19.116 -41.68,23.177 43.264,16.532 -44.986,-9.4025 24.439,37.026 z"
       opacity="0.16425"
       id="path189" /><path
       transform="matrix(0.92458,-0.38098,0.28574,0.69344,-28.325,139.67)"
       d="m 258.55,163.61 a 14.251,14.251 0 1 1 -28.502,0 14.251,14.251 0 1 1 28.502,0 z"
       opacity="0.16425"
       id="path191" /><path
       transform="rotate(18.152661,126.22476,228.75877)"
       d="m 134.37,228.76 a 8.1435,12.21515 0 1 1 -16.287,0 8.1435,12.21515 0 1 1 16.287,0 z"
       opacity="0.16425"
       id="path193" /><path
       transform="matrix(7.4308,4.1271,-0.36415,0.65566,-2627.2,-1668.1)"
       d="m 423.46,224.69 a 1.01795,8.1438 0 1 1 -2.0359,0 1.01795,8.1438 0 1 1 2.0359,0 z"
       opacity="0.16425"
       id="path195" /><path
       transform="matrix(0.76339,-0.64594,0.64594,0.76339,-8.4439,377.46)"
       d="m 515.07,200.26 a 4.0717,10.179 0 1 1 -8.1434,0 4.0717,10.179 0 1 1 8.1434,0 z"
       opacity="0.16425"
       id="path197" /><path
       d="m 75.327,307.14 a 4.0717,5.0896 0 1 1 -8.1434,0 4.0717,5.0896 0 1 1 8.1434,0 z"
       opacity="0.16425"
       id="path199" /><path
       transform="translate(215.8,189.33)"
       d="m 75.327,307.14 a 4.0717,5.0896 0 1 1 -8.1434,0 4.0717,5.0896 0 1 1 8.1434,0 z"
       opacity="0.16425"
       id="path201" /><path
       transform="matrix(3,0,0,3,73.291,-424.94)"
       d="m 75.327,307.14 a 4.0717,5.0896 0 1 1 -8.1434,0 4.0717,5.0896 0 1 1 8.1434,0 z"
       opacity="0.16425"
       id="path203" /><path
       transform="matrix(0.87529,0,0,0.87529,281.58,288.51)"
       d="m 350.53,36.821 a 308.79,308.79 0 1 1 -617.57,0 308.79,308.79 0 1 1 617.57,0 z"
       fill="url(#c)"
       id="path205"
       style="fill:url(#c)" /></g><polygon
     transform="translate(6,21)"
     style="fill:url(#SVGID_1_)"
     id="polygon136"
     points="229.32,205 68.055,205 68.055,80.375 148.69,142.69 229.32,80.375 " /><polygon
     transform="translate(6,21)"
     style="fill:#826a2a;stroke:#000000;stroke-width:5"
     id="polygon138"
     points="68.055,80.375 229.32,80.375 148.69,142.69 " /><rect
     style="fill:none;stroke:#000000;stroke-width:10"
     id="rect140"
     x="74.055"
     y="101.375"
     width="161.27"
     height="124.62" /><polyline
     transform="translate(6,21)"
     style="fill:none;stroke:#000000;stroke-width:3"
     id="polyline142"
     points="68.055 80.375 148.69 142.69 229.32 80.375" /><path
     style="fill:#812619;stroke:#000000;stroke-width:10"
     inkscape:connector-curvature="0"
     id="path144"
     d="M 114.85,77.927 C 114.85,49.248 91.604,26 62.928,26 34.248,26 11,49.248 11,77.927 c 0,28.679 23.248,51.927 51.928,51.927 3.191,0 6.312,-0.303 9.344,-0.854 l 27.316,17.951 -5.141,-27.768 C 106.85,109.694 114.85,94.749 114.85,77.928 Z" /><g
     id="g646"
     transform="matrix(0.1306689,0,0,-0.1306689,28.612525,110.59515)"><g
       id="g583" /><g
       id="g585"><g
         id="g587"
         clip-path="url(#clipPath591)"><g
           id="g593"
           clip-path="url(#clipPath597)"><path
             d="M -1,513 H 513 V -1 H -1 Z"
             style="fill:#f6b102;fill-opacity:1;fill-rule:nonzero;stroke:none"
             id="path599" /></g></g></g><g
       id="g601"><g
         id="g603"
         clip-path="url(#clipPath607)"><g
           id="g609"
           clip-path="url(#clipPath613)"><path
             d="M 252.6875,363 H 425.7089 V 161.0939 H 252.6875 Z"
             style="fill:#fdebbf;fill-opacity:1;fill-rule:nonzero;stroke:none"
             id="path615" /></g></g></g><g
       id="g617"><g
         id="g619"
         clip-path="url(#clipPath623)"><g
           id="g625"
           clip-path="url(#clipPath629)"><path
             d="M 82.51535,363 H 311.6214 V 161.0939 H 82.51535 Z"
             style="fill:#ffffff;fill-opacity:1;fill-rule:nonzero;stroke:none"
             id="path631" /></g></g></g></g></svg>
